<svg width="683" height="480" viewBox="0 0 683 480" fill="none" xmlns="http://www.w3.org/2000/svg">
<path d="M210.667 32.6666V65.3333H178H145.333V94.6666V124H108.667H72V160V196H36H0V298V400H36H72V334.667V269.333H108.667H145.333V302V334.667H178H210.667V367.333V400H178H145.333V440V480H210.667H276V407.333V334.667H344.667H413.333L413.6 406.933L414 479.333H479.333H544.667L545.067 439.6L545.333 400H512.667H480V367.333V334.667L512.4 334.4L544.667 334L545.067 301.6L545.333 269.333H581.333H617.333V334.667V400H650H682.667V298V196H650H617.333V160V124H581.333H545.333L545.067 94.9333L544.667 66L512.4 65.6L480 65.3333L479.733 32.9333L479.333 0.666642H446.667H414L413.6 32.9333L413.333 65.3333H344.667H276V32.6666V-2.5034e-05H243.333H210.667V32.6666ZM282.667 196.667V233.333H246.667H210.667V196.667V160H246.667H282.667V196.667ZM486.667 196.667V233.333L450.4 233.067L414 232.667L413.6 198C413.467 178.933 413.6 162.667 414 161.733C414.4 160.4 422.8 160 450.667 160H486.667V196.667Z" fill="#16FF5E"/>
</svg>
