<svg width="683" height="481" viewBox="0 0 683 481" fill="none" xmlns="http://www.w3.org/2000/svg">
<path d="M210.667 33.1667V65.8333H178H145.333V95.1667V124.5H108.667H72V196.5H0V1.16669H72V269.833H108.667H145.333V302.5V335.167H178H210.667V367.833V400.5H178H145.333V440.5V480.5H210.667H276V407.833V335.167H344.667H413.333L413.6 407.433L414 479.833H479.333H544.667L545.067 440.1L545.333 400.5H512.667H480V367.833V335.167L512.4 334.9L544.667 334.5L545.067 302.1L545.333 269.833H581.333H617.333V1.16669H682.667V196.5H650H617.333V160.5V124.5H581.333H545.333L545.067 95.4333L544.667 66.5L512.4 66.1L480 65.8333L479.733 33.4333L479.333 1.16669H446.667H414L413.6 33.4333L413.333 65.8333H344.667H276V33.1667V0.5H243.333H210.667V33.1667ZM282.667 197.167V233.833H246.667H210.667V197.167V160.5H246.667H282.667V197.167ZM486.667 197.167V233.833L450.4 233.567L414 233.167L413.6 198.5C413.467 179.433 413.6 163.167 414 162.233C414.4 160.9 422.8 160.5 450.667 160.5H486.667V197.167Z" fill="#16FF5E"/>
</svg>
